<svg xmlns="http://www.w3.org/2000/svg" width="33" height="32" viewBox="0 0 33 32" fill="none">
  <path d="M32.5708 23.4874V27.6474C32.5432 29.8227 30.8222 31.5904 28.665 31.6918H4.80509C2.53939 31.6918 0.703125 29.8555 0.703125 27.5898C0.703125 26.5368 1.1 25.5761 1.75224 24.8499C1.85091 24.74 1.95546 24.6354 2.06539 24.537L2.78618 23.816L13.7712 12.8309C14.0415 12.5675 14.3478 12.3408 14.6822 12.1589C15.2635 11.8433 15.9294 11.6641 16.6372 11.6641C18.9029 11.6641 20.7392 13.5008 20.7392 15.7663C20.7392 15.8223 20.738 15.8782 20.7358 15.934C20.6946 16.9562 20.2794 17.8821 19.6235 18.5787L19.6176 18.5846C19.5652 18.6404 19.5109 18.6943 19.4553 18.7469L19.4494 18.7528L17.821 20.3807L15.2042 22.9975L14.7143 23.4874H32.5708Z" fill="#67CE4D"/>
  <path d="M32.5716 15.9339V20.3806H22.2817C23.2671 19.1591 23.8694 17.6161 23.9069 15.9339C23.9083 15.878 23.9091 15.8222 23.9091 15.7661C23.9091 11.7041 20.616 8.41106 16.554 8.41106C16.4105 8.41106 16.2685 8.41498 16.1272 8.4233C15.6312 8.45146 15.1479 8.52932 14.6832 8.65124C13.4333 8.97883 12.3132 9.6274 11.4161 10.5034L11.3953 10.524L11.3121 10.6072L11.2915 10.628L5.98568 15.9336L1.53899 20.3803L1.37985 20.5394L0.704102 21.2152V15.9339C0.704102 7.134 7.83786 0 16.638 0C22.7172 0 28.0015 3.40468 30.6871 8.41106C31.8897 10.6515 32.5718 13.2133 32.5718 15.9339H32.5716Z" fill="#0790FF"/>
</svg>