<svg width="21" height="20" viewBox="0 0 21 20" fill="none" xmlns="http://www.w3.org/2000/svg">
<path d="M18.2445 6.93591L13.813 9.75592C12.5608 10.5528 11.9346 10.9513 11.2617 11.1065C10.6668 11.2437 10.0485 11.2437 9.45354 11.1065C8.78063 10.9513 8.1545 10.5528 6.90224 9.75592L2.47081 6.93591M18.2445 6.93591C18.4028 7.70849 18.4028 8.74154 18.4028 10.3458C18.4028 12.5986 18.4028 13.725 17.9643 14.5855C17.5787 15.3424 16.9633 15.9578 16.2064 16.3434C15.3459 16.7819 14.2195 16.7819 11.9667 16.7819H8.74861C6.49576 16.7819 5.36933 16.7819 4.50886 16.3434C3.75196 15.9578 3.13659 15.3424 2.75093 14.5855C2.3125 13.725 2.3125 12.5986 2.3125 10.3458C2.3125 8.74154 2.3125 7.70849 2.47081 6.93591M18.2445 6.93591C18.1804 6.62355 18.0906 6.35377 17.9643 6.10603C17.5787 5.34913 16.9633 4.73376 16.2064 4.3481C15.3459 3.90967 14.2195 3.90967 11.9667 3.90967H8.74861C6.49576 3.90967 5.36933 3.90967 4.50886 4.3481C3.75196 4.73376 3.13659 5.34913 2.75093 6.10603C2.6247 6.35377 2.53482 6.62355 2.47081 6.93591" stroke="#D0D5ED" stroke-width="1.60903" stroke-linecap="round" stroke-linejoin="round"/>
</svg>
