<svg width="20" height="20" viewBox="0 0 20 20" fill="none" xmlns="http://www.w3.org/2000/svg">
<path d="M4.98414 10.9627C4.00485 9.30257 3.36122 7.36774 3.10631 5.21124C2.99468 4.2644 3.58131 3.26769 4.58039 3.10382C4.89468 3.05315 5.2826 3.06028 5.60164 3.08957C6.93481 3.2099 7.48581 4.38553 7.77793 5.52711C7.97018 6.27742 7.95618 7.06574 7.7374 7.80875C7.51862 8.55176 7.1032 9.22187 6.53502 9.74828C6.05606 10.1916 5.50189 10.5653 4.98414 10.9627ZM4.98414 10.9627C6.01441 12.716 7.45682 14.1916 9.18631 15.2614M9.18631 15.2614C10.8995 16.3254 12.9182 17.0221 15.1808 17.2889C16.1276 17.4005 17.1243 16.8139 17.2882 15.814C17.3436 15.4712 17.3373 15.0778 17.2961 14.7326C17.1299 13.3314 15.7817 12.8009 14.5768 12.5254C13.9008 12.3705 13.1974 12.3815 12.5266 12.5574C11.8558 12.7333 11.2375 13.0689 10.7245 13.5356C10.1593 14.0502 9.68664 14.6859 9.18631 15.2614Z" stroke="#D0D5ED" stroke-width="1.58333" stroke-linecap="round" stroke-linejoin="round"/>
</svg>
